<?xml version="1.0" standalone="no"?>
<!DOCTYPE svg PUBLIC "-//W3C//DTD SVG 20010904//EN"
 "http://www.w3.org/TR/2001/REC-SVG-20010904/DTD/svg10.dtd">
<svg version="1.0" xmlns="http://www.w3.org/2000/svg"
 width="1328.000000pt" height="1328.000000pt" viewBox="0 0 1328.000000 1328.000000"
 preserveAspectRatio="xMidYMid meet">
<metadata>
Created by potrace 1.14, written by Peter Selinger 2001-2017
</metadata>
<g transform="translate(0.000000,1328.000000) scale(0.100000,-0.100000)"
fill="#000000" stroke="none">
<path d="M6570 13265 c-65 -25 -185 -69 -190 -70 -18 -3 -316 -116 -355 -135
-11 -6 -38 -16 -60 -24 -22 -8 -88 -35 -148 -60 -59 -25 -110 -45 -112 -45 -3
-1 -28 -12 -57 -26 -28 -14 -55 -25 -60 -25 -7 0 -50 -18 -155 -66 -17 -8 -34
-14 -38 -14 -3 0 -32 -12 -63 -26 -31 -14 -95 -42 -142 -61 -47 -19 -103 -43
-125 -53 -22 -10 -51 -21 -65 -25 -14 -4 -34 -13 -45 -20 -11 -6 -38 -18 -60
-25 -22 -7 -44 -16 -50 -20 -5 -4 -21 -11 -34 -15 -13 -4 -40 -14 -60 -23 -20
-9 -38 -16 -41 -17 -3 -1 -12 -5 -20 -8 -8 -4 -73 -29 -145 -56 l-130 -49 0
-457 c0 -293 4 -459 10 -464 6 -5 63 -32 128 -60 108 -48 460 -207 617 -278
61 -29 84 -39 220 -100 30 -14 97 -45 148 -69 52 -24 95 -44 97 -44 2 0 43
-18 92 -41 48 -22 102 -46 118 -54 17 -7 74 -34 128 -59 53 -25 99 -46 101
-46 2 0 53 -23 112 -51 60 -27 118 -54 129 -59 11 -5 52 -23 90 -40 148 -66
165 -72 237 -73 52 -1 74 4 124 30 34 18 65 29 68 26 3 -4 6 -1 6 5 0 7 5 12
11 12 6 0 40 14 76 30 35 17 66 30 69 30 3 0 52 23 110 50 58 28 112 50 120
50 8 0 14 5 14 11 0 5 5 7 10 4 6 -3 10 -2 10 3 0 5 6 9 13 9 6 0 61 24 120
52 60 28 110 51 112 51 1 0 45 20 96 44 187 86 251 116 254 116 2 0 42 18 90
41 129 60 199 92 205 94 9 2 271 121 356 160 27 13 88 40 135 60 46 21 112 50
145 66 34 16 66 29 70 29 10 0 9 673 -1 800 -3 46 -11 90 -16 96 -11 13 -264
140 -359 179 -36 15 -78 33 -95 40 -136 61 -165 73 -165 69 0 -3 -10 1 -22 8
-13 6 -27 13 -33 14 -5 1 -32 12 -60 24 -81 36 -88 39 -140 58 -27 10 -59 23
-70 27 -11 5 -22 9 -25 10 -14 5 -67 27 -85 35 -71 33 -201 84 -207 82 -5 -1
-8 3 -8 8 0 6 -6 10 -14 10 -7 0 -38 11 -67 24 -30 13 -94 40 -144 61 -49 21
-94 40 -100 44 -5 3 -12 6 -15 6 -3 1 -25 10 -50 22 -25 11 -74 33 -110 47
-36 15 -74 31 -85 36 -22 9 -57 23 -65 25 -3 0 -27 8 -55 17 -141 47 -246 62
-295 43z m1856 -1335 c-1 -126 -4 -231 -7 -234 -6 -7 -199 -96 -213 -99 -6 -1
-17 -8 -24 -15 -8 -7 -27 -16 -43 -19 -16 -3 -29 -10 -29 -16 0 -6 -3 -8 -6
-5 -3 3 -41 -12 -85 -33 -44 -21 -81 -39 -83 -39 -2 0 -50 -22 -107 -49 -57
-26 -126 -59 -154 -71 -27 -12 -86 -39 -131 -60 -44 -21 -97 -43 -117 -51 -20
-7 -37 -16 -37 -20 0 -7 -49 -24 -62 -21 -5 1 -8 -2 -8 -7 0 -8 -21 -17 -59
-26 -8 -2 -17 -7 -20 -12 -3 -4 -10 -8 -16 -8 -5 -1 -41 -16 -80 -34 -123 -58
-175 -80 -175 -73 0 4 -4 1 -9 -6 -4 -7 -14 -15 -22 -16 -8 -1 -39 -14 -69
-28 -135 -63 -227 -100 -245 -100 -11 0 -63 20 -115 45 -52 24 -120 56 -150
69 -52 24 -95 44 -257 119 -38 17 -106 48 -153 69 -47 21 -110 49 -140 63 -30
14 -131 59 -225 101 -93 42 -179 81 -190 86 -11 5 -68 32 -127 59 -59 27 -109
46 -112 43 -3 -3 -6 0 -6 6 0 7 -5 12 -12 12 -6 0 -34 11 -62 24 -28 13 -72
33 -98 45 -27 11 -68 30 -93 42 l-44 21 4 116 c11 268 15 335 19 339 2 3 17
-4 32 -14 16 -10 30 -17 31 -15 2 2 31 -10 66 -27 34 -16 87 -40 117 -54 30
-14 105 -48 165 -77 61 -28 130 -61 155 -73 25 -11 48 -20 53 -19 4 1 7 -3 7
-9 0 -5 5 -7 10 -4 6 3 10 1 10 -4 0 -6 6 -11 13 -11 6 0 34 -11 61 -25 27
-14 55 -25 63 -25 7 0 13 -3 13 -7 0 -5 21 -17 48 -27 42 -18 94 -41 317 -146
33 -15 80 -37 105 -48 78 -35 125 -55 130 -57 10 -4 57 -24 123 -54 37 -16 67
-27 67 -23 0 4 4 2 8 -4 7 -11 60 -37 102 -50 39 -12 136 -6 176 11 20 8 45
15 55 15 11 0 19 5 19 10 0 6 5 10 11 10 16 0 182 72 200 87 8 7 20 13 25 13
6 0 28 9 50 19 44 22 180 85 302 142 46 22 87 39 91 39 5 0 14 7 21 15 7 9 15
14 17 11 2 -2 40 14 84 35 44 21 84 39 89 39 6 0 10 4 10 8 0 5 6 9 13 9 6 0
89 37 182 81 94 44 193 90 220 102 28 13 79 37 115 53 36 17 67 31 70 31 8 2
84 36 100 46 8 5 16 9 17 9 0 1 0 -102 -1 -229z"/>
<path d="M8034 11851 c-3 -3 -11 -6 -17 -6 -6 0 -21 -14 -33 -32 -18 -27 -23
-58 -15 -105 3 -19 52 -59 79 -64 34 -7 89 14 112 41 21 26 20 96 -3 127 -26
35 -102 59 -123 39z"/>
<path d="M8780 11025 c-90 -48 -327 -157 -343 -159 -4 -1 -12 -8 -17 -16 -5
-8 -10 -12 -10 -7 0 4 -21 -4 -47 -17 -27 -14 -77 -38 -113 -54 -36 -16 -114
-53 -175 -82 -60 -29 -146 -69 -190 -90 -88 -42 -278 -132 -395 -188 -41 -20
-77 -36 -80 -37 -3 -1 -40 -18 -82 -38 -42 -20 -82 -37 -88 -37 -5 0 -10 -4
-10 -10 0 -5 -5 -10 -11 -10 -6 0 -58 -22 -116 -50 -57 -27 -109 -50 -114 -50
-5 0 -9 -5 -9 -10 0 -6 -3 -9 -7 -8 -5 1 -35 -11 -68 -26 -33 -15 -85 -39
-115 -53 -30 -14 -64 -30 -75 -36 -11 -5 -49 -12 -86 -15 -74 -5 -131 11 -257
72 -40 20 -75 36 -77 36 -2 0 -35 14 -72 31 -38 17 -111 50 -163 74 -52 24
-120 54 -150 68 -30 14 -127 57 -215 97 -88 39 -193 87 -233 106 -41 19 -75
34 -78 34 -4 0 -114 50 -232 106 -39 19 -74 34 -76 34 -2 0 -47 20 -100 45
-53 25 -99 45 -101 45 -2 0 -37 15 -77 34 -159 75 -298 136 -308 136 -5 0 -10
4 -10 10 0 5 -3 9 -7 8 -5 -1 -21 4 -36 10 -16 7 -30 12 -31 12 -7 0 -14 -39
-9 -44 3 -3 7 -78 10 -168 2 -90 5 -173 6 -186 2 -23 28 -42 107 -75 31 -13
63 -27 165 -72 17 -8 70 -32 118 -54 49 -23 91 -41 93 -41 4 0 93 -40 194 -87
41 -20 81 -36 88 -36 6 0 12 -4 12 -9 0 -4 6 -8 13 -8 7 0 32 -9 54 -20 23
-11 81 -37 130 -59 48 -21 108 -48 133 -59 25 -11 124 -55 220 -97 96 -43 207
-92 245 -110 39 -18 87 -38 108 -46 20 -7 37 -17 37 -21 0 -4 6 -8 13 -8 8 0
27 -6 43 -14 60 -28 269 -121 274 -121 3 0 11 -4 19 -9 20 -13 110 -32 141
-31 40 3 106 24 183 59 40 18 99 46 132 61 174 80 207 95 210 95 2 0 45 20 97
44 99 47 188 87 253 116 22 10 74 33 115 53 233 108 282 130 300 133 8 2 16 8
18 13 2 6 12 11 21 11 10 0 21 3 25 8 4 4 11 7 14 8 6 1 80 35 237 109 17 8
64 29 105 48 41 19 98 45 125 58 28 13 52 24 55 24 3 1 25 11 50 22 25 12 74
34 110 50 36 17 86 40 113 52 35 16 47 27 48 44 3 77 8 179 14 295 8 149 10
146 -65 107z"/>
<path d="M9177 10623 c-2 -4 -3 -17 -1 -28 3 -11 6 -103 9 -205 3 -102 7 -203
9 -225 9 -73 17 -120 28 -160 7 -22 12 -42 12 -45 3 -20 61 -122 86 -153 90
-107 139 -117 585 -122 293 -3 327 -6 434 -31 239 -55 426 -243 504 -509 27
-90 30 -109 32 -235 3 -126 -8 -210 -41 -307 -18 -52 -54 -135 -63 -143 -3 -3
-13 -18 -22 -34 -28 -50 -112 -141 -173 -187 -32 -24 -64 -49 -71 -55 -16 -17
-135 -76 -135 -68 0 4 -6 2 -12 -3 -13 -11 -37 -17 -104 -30 -81 -16 -371 -7
-469 13 -11 3 -38 7 -60 10 -39 5 -61 8 -137 20 -25 4 -42 1 -51 -8 -8 -7 -54
-49 -102 -93 -49 -44 -100 -91 -114 -105 -14 -14 -60 -54 -101 -90 -41 -36
-77 -67 -80 -71 -3 -3 -23 -18 -45 -35 -39 -29 -49 -36 -80 -62 -28 -24 -219
-137 -260 -154 -35 -14 -67 -27 -85 -33 -3 -1 -12 -5 -20 -8 -19 -9 -101 -26
-205 -44 -22 -3 -213 -7 -425 -8 -419 -2 -458 -5 -576 -36 -43 -11 -83 -21
-89 -23 -5 -1 -14 -4 -20 -8 -5 -3 -26 -9 -45 -13 -19 -4 -39 -10 -45 -13 -5
-4 -14 -7 -20 -8 -5 -1 -59 -19 -120 -39 -60 -20 -114 -38 -120 -39 -5 -2 -30
-8 -55 -15 -25 -7 -52 -15 -60 -17 -8 -2 -32 -8 -52 -13 -21 -5 -38 -7 -38 -4
0 3 -6 1 -12 -5 -14 -10 -192 -9 -263 3 -22 3 -52 8 -66 10 -22 3 -302 66
-361 81 -44 11 -170 36 -193 39 -11 1 -20 3 -20 4 0 4 -71 13 -112 14 -24 1
-43 5 -43 10 0 4 -5 5 -11 2 -6 -4 -47 -9 -92 -11 -45 -2 -102 -6 -127 -8 -71
-7 -162 -16 -195 -21 -182 -24 -496 -24 -534 -1 -4 3 -18 7 -32 9 -48 9 -256
100 -294 129 -5 4 -53 36 -105 70 -52 34 -97 65 -100 68 -3 3 -21 17 -40 30
-19 14 -39 28 -45 33 -5 5 -53 40 -105 78 -52 38 -99 72 -105 76 -24 19 -95
63 -100 63 -4 0 -13 7 -21 15 -18 18 -71 33 -144 40 -53 5 -65 6 -92 4 -14 0
-139 0 -208 1 -25 0 -54 0 -65 -1 -123 -7 -275 4 -366 27 -70 17 -174 58 -189
74 -3 3 -17 13 -31 22 -30 19 -106 86 -157 138 -93 96 -152 216 -189 386 -16
73 -4 323 17 349 5 6 8 14 5 17 -14 14 105 278 126 278 5 0 9 6 9 14 0 23 139
159 205 201 33 21 76 49 96 62 19 13 40 23 46 23 7 0 24 5 40 12 32 12 31 12
132 32 71 14 377 16 456 3 17 -3 53 -8 80 -11 60 -7 140 -22 140 -26 0 -2 15
-4 84 -14 24 -4 51 -10 60 -15 9 -5 19 -9 24 -9 30 -1 87 -15 87 -23 0 -4 7
-6 16 -2 8 3 13 11 10 18 -2 7 -2 16 1 19 3 3 7 72 9 153 2 81 6 213 9 293 3
80 6 191 8 246 l3 102 -66 -31 c-96 -44 -139 -59 -217 -73 -12 -2 -54 -16 -95
-30 -145 -51 -194 -66 -228 -69 -19 -2 -35 -4 -35 -5 0 -2 -38 -6 -150 -14
-82 -6 -92 -7 -185 -21 -30 -5 -62 -9 -70 -10 -36 -2 -250 -59 -285 -75 -11
-5 -44 -19 -73 -30 -62 -23 -179 -89 -240 -133 -49 -36 -166 -151 -227 -223
-22 -26 -48 -55 -58 -66 -9 -10 -14 -18 -10 -18 3 0 -3 -10 -14 -22 -11 -13
-29 -39 -38 -58 -10 -19 -21 -37 -24 -40 -6 -4 -40 -81 -61 -135 -21 -53 -41
-131 -59 -230 -16 -90 -19 -142 -16 -285 2 -96 6 -188 9 -203 2 -15 10 -60 16
-100 7 -40 14 -81 17 -92 2 -11 6 -31 9 -45 7 -31 49 -190 67 -248 16 -53 77
-131 178 -226 78 -74 193 -164 239 -188 14 -7 27 -16 30 -19 12 -16 242 -120
315 -143 103 -32 199 -56 249 -62 22 -3 43 -7 46 -9 25 -15 338 -24 495 -14
49 3 64 0 84 -16 13 -11 42 -36 65 -55 24 -19 57 -46 76 -60 52 -39 144 -109
155 -118 6 -4 28 -19 50 -32 22 -13 42 -27 45 -30 3 -4 12 -10 20 -14 8 -4 38
-20 65 -36 87 -51 229 -118 298 -140 60 -19 67 -24 68 -48 0 -15 1 -287 1
-605 0 -413 -3 -581 -11 -591 -6 -7 -31 -26 -56 -42 -25 -15 -45 -32 -45 -36
0 -4 -6 -8 -12 -8 -7 0 -35 -17 -63 -38 -27 -20 -77 -55 -110 -77 -33 -22 -64
-44 -70 -48 -42 -34 -167 -117 -175 -117 -6 0 -10 -3 -10 -7 0 -5 -25 -24 -55
-43 -30 -19 -55 -38 -55 -42 0 -5 -7 -8 -15 -8 -8 0 -15 -5 -15 -11 0 -5 -4
-7 -10 -4 -5 3 -10 2 -10 -4 0 -5 -17 -20 -37 -32 -75 -45 -182 -129 -194
-151 -9 -17 -12 -209 -12 -803 l0 -780 -86 -21 c-104 -26 -183 -60 -275 -121
-84 -57 -216 -186 -216 -213 0 -6 -4 -10 -9 -10 -5 0 -13 -9 -16 -20 -3 -11
-12 -26 -19 -32 -18 -20 -102 -215 -96 -226 1 -1 -4 -26 -9 -55 -14 -63 -17
-191 -7 -271 25 -219 160 -444 348 -583 51 -38 198 -116 198 -106 0 4 5 2 12
-5 7 -7 22 -12 33 -12 12 0 25 -3 29 -7 3 -4 14 -8 24 -9 9 -2 33 -6 52 -10
81 -18 311 -8 373 15 12 5 25 9 29 10 35 7 160 62 175 77 8 8 19 14 24 14 28
0 259 217 259 244 0 2 16 29 35 61 41 68 79 166 99 254 14 62 16 289 3 336 -3
11 -11 43 -18 70 -6 28 -18 62 -25 76 -7 15 -10 29 -7 33 4 3 1 6 -5 6 -7 0
-12 8 -12 18 0 9 -9 28 -20 42 -11 14 -20 29 -20 33 -1 30 -139 186 -215 242
-22 16 -42 32 -45 35 -12 13 -163 90 -185 95 -5 1 -17 4 -25 8 -28 10 -105 28
-127 30 -23 1 -23 2 -23 182 0 300 0 980 0 1141 l0 151 168 116 c92 64 174
122 182 127 8 6 38 26 65 46 103 71 217 149 233 159 9 6 22 15 29 20 29 23 41
32 98 70 33 22 66 46 73 52 7 7 16 13 20 13 20 1 75 63 81 92 3 18 6 308 5
644 l-1 611 26 -4 c14 -1 81 -5 148 -7 67 -2 127 -7 132 -11 6 -3 11 -3 11 2
0 11 558 17 685 7 39 -3 78 -5 88 -5 16 0 17 -39 17 -674 l0 -674 -37 -10
c-21 -6 -49 -12 -63 -15 -162 -32 -362 -169 -477 -326 -60 -82 -119 -208 -139
-295 -28 -120 -25 -320 4 -429 22 -81 108 -266 124 -266 4 0 8 -5 8 -10 0 -10
32 -48 96 -116 40 -42 178 -141 224 -161 19 -8 46 -20 60 -26 14 -5 27 -11 30
-12 3 -1 12 -4 20 -8 13 -5 45 -13 90 -24 91 -21 273 -21 355 1 90 23 131 37
165 55 22 11 40 18 40 16 0 -3 35 18 78 46 97 65 218 186 264 265 23 39 72
137 73 146 0 3 3 10 8 14 4 4 7 16 7 26 0 10 5 18 11 18 5 0 8 4 5 8 -2 4 2
39 10 77 24 109 20 313 -6 378 -5 12 -12 36 -16 52 -9 39 -7 32 -32 88 -12 27
-22 51 -22 53 0 3 -5 10 -10 17 -6 7 -24 32 -40 57 -48 74 -131 164 -195 211
-33 24 -62 44 -65 44 -3 0 -16 8 -30 17 -58 39 -194 88 -281 101 l-24 4 -1
657 0 656 30 -5 c17 -2 48 -7 69 -10 20 -3 52 -7 70 -10 274 -40 640 -38 872
4 33 5 71 12 85 15 14 2 38 9 53 15 16 6 32 9 37 6 5 -3 11 -1 15 5 3 5 9 10
13 10 4 0 7 -204 7 -453 1 -525 -9 -478 119 -558 112 -70 298 -187 316 -199
75 -49 142 -90 150 -90 6 0 10 -4 10 -8 0 -5 12 -15 28 -23 15 -7 55 -32 90
-54 l62 -40 0 -85 c1 -47 1 -494 1 -993 0 -867 0 -909 -18 -923 -10 -7 -33
-21 -52 -30 -19 -9 -56 -29 -82 -45 -26 -15 -50 -25 -53 -22 -3 4 -6 1 -6 -5
0 -6 -10 -14 -22 -18 -13 -3 -31 -13 -40 -22 -10 -8 -18 -12 -18 -7 0 4 -6 2
-14 -4 -7 -6 -35 -23 -62 -37 -100 -53 -211 -112 -254 -137 -25 -13 -79 -42
-120 -63 -41 -22 -79 -42 -85 -47 -5 -4 -35 -20 -65 -36 -33 -17 -61 -40 -70
-57 -13 -25 -15 -110 -16 -561 0 -293 -3 -535 -6 -538 -2 -3 -18 -7 -34 -9
-44 -7 -58 -11 -71 -19 -7 -5 -13 -6 -13 -3 0 13 -213 -83 -230 -103 -3 -3
-24 -19 -46 -34 -51 -34 -139 -125 -186 -192 -42 -59 -90 -145 -82 -145 4 0 1
-7 -6 -14 -6 -8 -23 -55 -36 -103 -28 -97 -41 -287 -24 -358 5 -22 11 -51 13
-65 3 -14 10 -38 17 -55 6 -16 12 -32 12 -35 4 -32 56 -138 99 -202 48 -70
158 -188 176 -188 6 0 13 -4 15 -8 9 -22 198 -131 198 -115 0 5 4 3 8 -3 4 -6
45 -21 92 -34 67 -19 111 -24 210 -24 141 0 171 4 279 40 200 66 382 218 479
399 31 57 72 155 65 155 -3 0 0 7 7 15 7 8 9 15 6 15 -4 0 -3 8 3 18 29 55 33
368 5 413 -3 5 -8 21 -10 36 -6 34 -50 137 -82 193 -56 99 -156 208 -247 271
-27 19 -53 39 -57 44 -5 7 -8 7 -8 0 0 -7 -3 -7 -8 0 -18 25 -173 84 -267 101
-16 3 -32 8 -35 11 -10 10 -5 965 5 972 5 4 44 25 85 47 41 21 77 42 80 45 3
3 30 18 60 32 30 15 84 43 119 62 89 49 271 147 298 160 13 5 23 13 23 18 0 4
9 7 19 7 11 0 21 3 23 8 2 4 32 22 68 40 123 64 169 95 181 125 10 23 13 282
13 1116 0 1245 10 1123 -99 1189 -33 20 -61 40 -63 44 -2 4 -8 8 -13 8 -11 0
-173 102 -177 112 -2 5 -8 8 -14 8 -5 0 -29 14 -53 30 -24 17 -48 30 -54 30
-6 0 -11 5 -11 10 0 6 -7 10 -15 10 -8 0 -15 5 -15 10 0 6 -5 10 -10 10 -6 0
-51 27 -102 60 -50 33 -94 60 -97 60 -3 0 -17 9 -30 19 l-25 19 0 446 -1 445
40 23 c37 21 53 23 192 23 84 0 153 -2 153 -5 0 -6 215 -4 415 5 204 8 230 11
340 30 87 15 229 59 249 77 21 18 62 6 130 -36 67 -41 210 -125 286 -169 19
-11 47 -27 62 -36 14 -9 71 -42 125 -73 54 -32 107 -64 117 -71 17 -12 17 -82
17 -1416 0 -772 -1 -1405 -3 -1407 -2 -2 -21 -6 -42 -10 -21 -3 -55 -12 -77
-19 -21 -8 -39 -11 -39 -8 0 4 -5 2 -12 -5 -7 -7 -20 -12 -30 -12 -10 0 -18
-4 -18 -10 0 -5 -8 -10 -17 -10 -27 0 -170 -95 -231 -154 -60 -56 -142 -158
-142 -175 0 -6 -3 -11 -8 -11 -8 0 -34 -55 -32 -66 1 -4 -2 -10 -7 -13 -13 -8
-50 -114 -66 -189 -15 -64 -16 -265 -3 -332 21 -104 79 -243 140 -330 46 -67
163 -181 231 -226 82 -54 190 -104 226 -104 11 0 19 -4 19 -9 0 -6 9 -8 20 -6
11 2 20 1 20 -3 0 -14 248 -22 325 -10 50 7 124 26 150 38 11 5 42 18 68 29
75 32 181 106 248 174 65 66 169 214 169 240 0 8 3 17 8 19 4 1 17 32 29 68
171 499 -138 1028 -656 1125 -13 2 -26 7 -30 11 -3 3 -6 657 -7 1452 0 1339
-2 1450 -17 1482 -17 34 -42 51 -266 180 -135 78 -197 116 -199 122 -2 4 -8 8
-14 8 -10 0 -178 100 -178 106 0 1 48 35 106 74 58 39 111 75 117 81 41 33 61
49 92 70 19 13 35 27 35 32 0 4 6 7 14 7 8 0 16 3 18 8 2 4 38 36 81 71 l78
63 217 3 c203 3 302 8 362 20 13 3 42 7 65 10 70 10 198 46 255 72 108 49 125
57 135 65 6 4 37 28 70 52 113 83 365 362 365 405 0 5 4 11 9 13 17 6 110 216
127 287 2 9 8 36 15 61 6 25 13 59 15 75 3 17 8 44 10 60 10 57 13 310 5 355
-14 70 -23 133 -25 158 0 12 -4 22 -7 22 -3 0 -6 6 -7 13 -4 31 -10 54 -21 80
-6 16 -11 34 -11 42 0 8 -4 17 -10 20 -5 3 -10 14 -10 23 0 30 -124 259 -171
315 -146 177 -221 240 -405 345 -174 98 -233 122 -344 136 -19 2 -42 7 -50 10
-15 5 -88 12 -230 22 -41 3 -91 7 -110 10 -19 2 -53 6 -75 9 -189 19 -315 67
-450 169 -44 34 -83 66 -87 71 -4 6 -8 6 -8 2 0 -4 -9 1 -20 11 -12 11 -46 37
-78 58 -31 21 -59 41 -62 44 -18 19 -39 30 -43 23z m-3141 -5433 c94 -20 86
-17 179 -61 28 -13 55 -28 62 -34 6 -5 34 -28 60 -50 60 -48 99 -99 143 -185
50 -97 45 -83 66 -180 9 -42 6 -194 -4 -220 -5 -14 -10 -27 -10 -30 -1 -55
-65 -183 -128 -257 -84 -99 -233 -188 -349 -208 -119 -22 -275 -6 -357 36 -21
10 -38 16 -38 13 0 -2 -28 14 -62 37 -180 120 -275 284 -291 501 -5 61 18 204
35 226 6 6 7 12 4 12 -4 0 9 31 29 69 60 114 149 205 255 262 25 13 47 26 50
29 3 3 12 7 20 9 8 2 44 12 80 21 69 19 190 23 256 10z m3846 -1624 c165 -26
344 -152 427 -298 174 -309 68 -689 -242 -866 -21 -12 -45 -22 -53 -22 -8 0
-14 -4 -14 -8 0 -5 -6 -9 -12 -9 -7 0 -42 -8 -77 -17 -61 -16 -178 -22 -231
-11 -14 2 -38 7 -55 10 -16 4 -39 10 -50 15 -11 5 -44 19 -72 31 -29 12 -53
25 -53 30 0 5 -6 9 -13 9 -7 0 -27 13 -45 29 -17 17 -32 28 -32 25 0 -11 -85
93 -115 141 -33 51 -69 139 -82 197 -8 41 -8 222 1 265 27 129 118 269 235
361 48 39 180 102 225 109 17 3 47 8 66 12 38 8 134 6 192 -3z m-6117 -430
c145 -32 291 -129 372 -247 38 -55 82 -141 87 -171 3 -13 5 -23 6 -23 2 0 7
-19 15 -60 10 -47 12 -186 3 -191 -5 -3 -6 -9 -4 -13 13 -20 -75 -251 -95
-251 -4 0 -10 -8 -14 -17 -13 -40 -161 -173 -192 -173 -7 0 -13 -4 -13 -8 0
-12 -95 -49 -170 -66 -64 -14 -237 -15 -259 -1 -6 3 -22 8 -36 11 -13 2 -45
14 -72 26 -26 12 -51 22 -55 22 -4 1 -17 9 -28 18 -11 10 -24 18 -28 18 -12 0
-124 110 -153 150 -33 45 -66 111 -86 169 -49 143 -32 346 39 480 31 60 95
146 128 174 136 115 277 168 435 162 50 -1 104 -6 120 -9z m3570 -1661 c145
-25 284 -112 381 -240 17 -22 34 -47 37 -55 4 -8 11 -22 17 -30 9 -14 24 -52
30 -75 1 -5 7 -21 12 -35 35 -91 33 -241 -6 -385 -9 -35 -85 -168 -106 -185
-3 -3 -16 -18 -28 -34 -12 -16 -22 -26 -22 -22 0 3 -13 -8 -30 -26 -16 -17
-30 -28 -30 -24 0 3 -10 -4 -21 -15 -45 -45 -253 -118 -301 -106 -10 3 -20 2
-23 -3 -3 -4 -21 -4 -40 0 -19 4 -35 4 -35 0 0 -5 -15 -4 -32 0 -104 27 -126
34 -158 48 -19 8 -38 15 -42 14 -3 -1 -12 5 -18 13 -7 8 -17 15 -22 15 -24 0
-121 87 -175 157 -57 74 -118 222 -122 293 -6 109 -6 132 1 136 4 3 5 11 2 19
-5 12 16 103 33 145 3 8 7 18 7 21 2 12 42 84 54 97 6 7 12 17 12 22 0 18 119
130 180 169 123 80 293 113 445 86z"/>
<path d="M8740 10048 c-58 -27 -139 -66 -180 -85 -41 -20 -127 -60 -190 -90
-63 -31 -142 -68 -175 -83 -33 -15 -105 -49 -160 -76 -55 -26 -102 -48 -105
-49 -5 -1 -124 -58 -270 -128 -47 -23 -87 -42 -90 -43 -10 -2 -205 -95 -220
-104 -8 -6 -22 -13 -30 -16 -15 -6 -56 -25 -217 -101 -51 -23 -97 -43 -103
-43 -5 0 -10 -4 -10 -10 0 -5 -6 -10 -14 -10 -7 0 -39 -14 -70 -30 -31 -17
-56 -27 -56 -23 0 5 -4 3 -8 -2 -9 -13 -114 -60 -163 -73 -41 -11 -108 -10
-154 2 -31 8 -41 12 -161 67 -38 17 -153 69 -256 115 -104 46 -196 88 -205 93
-17 9 -68 32 -158 71 -22 10 -65 29 -95 43 -102 46 -174 79 -375 169 -110 50
-231 105 -270 123 -38 17 -140 63 -225 100 -85 38 -158 74 -162 80 -4 5 -8 7
-8 2 0 -4 -13 -1 -30 8 -16 8 -32 15 -35 15 -3 0 -32 13 -65 30 -77 39 -87 38
-84 -2 1 -18 3 -33 4 -33 2 0 8 -176 9 -276 l1 -77 47 -22 c57 -27 116 -53
123 -55 25 -5 50 -18 50 -25 0 -5 7 -7 15 -4 8 4 15 1 15 -5 0 -6 6 -11 13
-11 8 0 41 -13 75 -30 34 -16 64 -30 66 -30 2 0 30 -12 62 -27 33 -15 61 -28
64 -29 3 0 27 -10 53 -22 27 -12 53 -22 58 -22 5 0 9 -4 9 -10 0 -5 3 -9 8 -8
4 1 18 -4 32 -9 31 -14 189 -83 255 -113 28 -12 68 -31 90 -41 45 -20 406
-180 475 -211 76 -33 102 -45 183 -82 43 -20 80 -36 82 -36 2 0 48 -20 101
-45 53 -25 98 -45 100 -45 2 0 34 -14 71 -32 87 -40 192 -46 263 -16 73 32 95
41 100 43 3 0 25 11 50 24 25 13 47 24 50 24 3 -1 21 7 41 18 20 10 39 15 43
12 3 -4 6 -1 6 5 0 9 25 22 50 27 3 1 31 13 63 28 77 36 140 65 277 126 63 28
122 56 130 61 8 6 20 12 25 14 23 9 50 17 54 16 2 -1 7 3 11 10 4 6 13 12 21
14 15 2 63 24 199 89 47 23 90 42 95 42 9 2 107 47 249 116 22 10 46 19 53 19
7 0 13 4 13 9 0 5 15 13 33 16 17 4 34 10 37 14 3 4 34 20 70 35 36 16 99 45
140 64 41 18 91 41 110 49 19 8 42 19 50 24 8 5 26 14 40 19 95 39 100 42 101
74 0 17 3 60 5 96 10 187 16 330 13 329 -2 0 -51 -23 -109 -51z"/>
<path d="M8795 9226 c-52 -24 -158 -74 -335 -159 -210 -100 -275 -131 -280
-132 -3 0 -50 -23 -105 -50 -55 -27 -102 -49 -105 -50 -3 0 -36 -16 -75 -34
-38 -19 -126 -61 -195 -93 -123 -59 -170 -80 -180 -82 -3 -1 -12 -6 -20 -11
-31 -19 -170 -84 -170 -79 0 3 -13 -4 -29 -15 -16 -12 -33 -21 -37 -21 -4 0
-51 -21 -104 -47 -52 -26 -97 -48 -100 -48 -3 -1 -45 -21 -95 -44 -198 -96
-261 -123 -304 -131 -74 -14 -135 -2 -241 47 -41 19 -103 48 -138 64 -35 16
-65 29 -67 29 -2 0 -51 23 -110 50 -59 28 -108 50 -110 50 -2 0 -43 18 -92 40
-48 23 -97 45 -108 50 -11 5 -56 26 -100 46 -111 50 -129 57 -137 56 -5 -1 -8
3 -8 9 0 5 -4 8 -9 5 -5 -4 -11 -2 -13 4 -2 6 -12 12 -23 14 -11 2 -64 25
-118 50 -53 25 -99 46 -102 46 -3 0 -37 16 -75 35 -39 19 -73 34 -75 34 -3 0
-31 12 -63 27 -31 14 -102 46 -157 71 -55 25 -122 55 -150 68 -50 23 -143 65
-200 90 -16 7 -60 27 -98 44 -37 17 -68 31 -70 31 -2 0 -1 -21 0 -47 4 -56 10
-184 13 -299 l3 -82 61 -28 c33 -16 63 -29 66 -30 8 -1 49 -19 120 -52 36 -16
85 -39 110 -50 25 -11 68 -30 95 -42 28 -12 64 -28 80 -35 17 -8 69 -31 116
-53 47 -22 97 -43 110 -47 13 -4 39 -16 57 -27 17 -11 32 -17 32 -15 0 3 33
-11 73 -30 90 -44 120 -57 130 -55 4 1 7 -3 7 -10 0 -6 3 -9 6 -6 3 4 38 -9
77 -27 137 -63 191 -88 266 -120 42 -18 99 -43 126 -56 28 -13 52 -24 55 -24
3 -1 36 -16 74 -33 38 -18 75 -32 82 -32 8 0 14 -4 14 -10 0 -5 4 -10 10 -10
5 0 35 -12 67 -26 32 -14 74 -33 93 -41 19 -8 63 -28 98 -44 35 -16 84 -34
109 -39 55 -13 148 -4 189 18 55 30 106 52 119 52 8 0 15 5 15 10 0 6 5 10 11
10 7 0 50 18 96 40 47 22 87 40 89 40 2 0 56 25 119 55 64 30 118 55 120 55 4
0 78 34 240 110 69 32 106 48 125 55 3 1 41 19 85 39 87 41 128 58 134 56 2
-1 7 2 10 7 3 5 29 19 56 30 28 12 88 39 135 61 47 22 130 60 185 85 55 25
136 62 180 83 44 21 82 38 85 39 25 8 272 123 281 132 5 5 11 46 14 93 8 143
17 360 13 360 -2 0 -25 -11 -53 -24z"/>
</g>
</svg>
