<svg xmlns="http://www.w3.org/2000/svg" xmlns:xlink="http://www.w3.org/1999/xlink" zoomAndPan="magnify" preserveAspectRatio="xMidYMid meet" version="1.0" viewBox="38.95 37.92 119.11 165.77"><defs><clipPath id="586a831bb8"><path d="M 70 37.917969 L 127 37.917969 L 127 73 L 70 73 Z M 70 37.917969 " clip-rule="nonzero"/></clipPath><clipPath id="a81005373b"><path d="M 50.136719 112.933594 L 75 112.933594 L 75 183 L 50.136719 183 Z M 50.136719 112.933594 " clip-rule="nonzero"/></clipPath><clipPath id="9064f48c2d"><path d="M 78 112.933594 L 101 112.933594 L 101 158 L 78 158 Z M 78 112.933594 " clip-rule="nonzero"/></clipPath><clipPath id="b73c8bc4df"><path d="M 94 112.933594 L 120 112.933594 L 120 203.683594 L 94 203.683594 Z M 94 112.933594 " clip-rule="nonzero"/></clipPath><clipPath id="ffc9f826aa"><path d="M 123 112.933594 L 148.386719 112.933594 L 148.386719 178 L 123 178 Z M 123 112.933594 " clip-rule="nonzero"/></clipPath></defs><g clip-path="url(#586a831bb8)"><path fill="#5271ff" d="M 70.738281 48.878906 C 80.003906 45.449219 88.890625 41.039062 98.253906 37.917969 C 102.066406 38.417969 105.5 40.492188 109.097656 41.847656 C 114.71875 44.375 120.652344 46.234375 126.058594 49.214844 C 126.441406 52.90625 126.226562 56.625 126.25 60.34375 C 117.554688 64.15625 108.953125 68.230469 100.234375 72.070312 C 98.375 73.308594 96.46875 71.949219 94.730469 71.257812 C 86.746094 67.613281 78.765625 63.941406 70.738281 60.34375 C 70.738281 56.53125 70.714844 52.714844 70.738281 48.878906 Z M 120.816406 51.929688 C 114.765625 54.648438 108.785156 57.484375 102.804688 60.296875 C 100.828125 61.058594 98.683594 62.632812 96.5625 61.296875 C 89.703125 58.390625 83.054688 55.050781 76.265625 52 C 76.191406 53.933594 76.121094 55.839844 76.050781 57.769531 C 83.484375 61.128906 90.917969 64.441406 98.304688 67.875 C 105.855469 64.632812 113.3125 61.128906 120.792969 57.699219 C 120.816406 55.792969 120.816406 53.859375 120.816406 51.929688 Z M 120.816406 51.929688 " fill-opacity="1" fill-rule="nonzero"/></g><path fill="#5271ff" d="M 70.714844 71.808594 L 96.5625 83.320312 C 97.5625 83.773438 98.730469 83.773438 99.730469 83.296875 L 125.84375 71.355469 L 126.132812 65.660156 L 99.730469 78.148438 C 98.707031 78.625 97.539062 78.648438 96.492188 78.171875 L 70.523438 66.445312 Z M 70.714844 71.808594 " fill-opacity="1" fill-rule="nonzero"/><path fill="#5271ff" d="M 70.714844 83.746094 L 96.5625 95.257812 C 97.5625 95.710938 98.730469 95.710938 99.730469 95.234375 L 125.84375 83.296875 L 126.132812 77.597656 L 99.730469 90.085938 C 98.707031 90.5625 97.539062 90.589844 96.492188 90.113281 L 70.5 78.386719 Z M 70.714844 83.746094 " fill-opacity="1" fill-rule="nonzero"/><path fill="#5271ff" d="M 70.714844 94.328125 L 96.5625 105.839844 C 97.5625 106.292969 98.730469 106.292969 99.730469 105.816406 L 125.84375 93.878906 L 126.132812 88.179688 L 99.730469 100.667969 C 98.707031 101.144531 97.539062 101.171875 96.492188 100.695312 L 70.5 88.96875 Z M 70.714844 94.328125 " fill-opacity="1" fill-rule="nonzero"/><path fill="#5271ff" d="M 117.71875 57.03125 C 117.71875 57.210938 117.6875 57.382812 117.617188 57.550781 C 117.546875 57.71875 117.449219 57.863281 117.324219 57.992188 C 117.195312 58.117188 117.046875 58.214844 116.882812 58.285156 C 116.714844 58.355469 116.542969 58.390625 116.363281 58.390625 C 116.183594 58.390625 116.007812 58.355469 115.84375 58.285156 C 115.675781 58.214844 115.53125 58.117188 115.402344 57.992188 C 115.273438 57.863281 115.175781 57.71875 115.109375 57.550781 C 115.039062 57.382812 115.003906 57.210938 115.003906 57.03125 C 115.003906 56.851562 115.039062 56.675781 115.109375 56.511719 C 115.175781 56.34375 115.273438 56.199219 115.402344 56.070312 C 115.53125 55.941406 115.675781 55.84375 115.84375 55.777344 C 116.007812 55.707031 116.183594 55.671875 116.363281 55.671875 C 116.542969 55.671875 116.714844 55.707031 116.882812 55.777344 C 117.046875 55.84375 117.195312 55.941406 117.324219 56.070312 C 117.449219 56.199219 117.546875 56.34375 117.617188 56.511719 C 117.6875 56.675781 117.71875 56.851562 117.71875 57.03125 Z M 117.71875 57.03125 " fill-opacity="1" fill-rule="nonzero"/><path fill="#5271ff" d="M 149.3125 77.980469 C 144.570312 74.691406 137.949219 77.480469 133.636719 73.476562 C 132.46875 72.640625 131.300781 71.785156 130.132812 70.949219 C 130.65625 74.761719 129.371094 80.125 133.398438 82.4375 C 137.613281 83.320312 142.140625 81.984375 146.214844 83.652344 C 152.671875 86.75 153.246094 96.953125 147.453125 101.003906 C 143.90625 104.101562 139.019531 102.742188 134.851562 102.195312 C 131.683594 105.03125 128.679688 108.25 124.773438 110.035156 C 119.890625 112.15625 114.480469 110.609375 109.382812 111.347656 C 106 112.109375 102.804688 113.660156 99.375 114.183594 C 95.15625 114.207031 91.179688 112.441406 87.007812 112.085938 C 83.246094 112.0625 79.503906 113.085938 75.738281 112.679688 C 70.523438 111.800781 66.996094 107.558594 62.566406 105.078125 C 57.847656 104.171875 52.128906 106.292969 48.339844 102.410156 C 42.910156 98.070312 44.386719 88.871094 50.246094 85.628906 C 50.246094 85.628906 50.269531 85.605469 50.320312 85.582031 C 50.628906 85.367188 50.9375 85.203125 51.222656 85.058594 C 51.34375 85.011719 51.460938 84.941406 51.605469 84.914062 C 51.722656 84.867188 51.820312 84.820312 51.9375 84.796875 C 52.175781 84.699219 52.460938 84.628906 52.699219 84.582031 C 52.773438 84.558594 52.84375 84.535156 52.9375 84.535156 C 54.703125 84.152344 57.511719 83.984375 61.730469 84.773438 C 62.875 84.988281 64.136719 85.273438 65.519531 85.65625 L 65.875 75.214844 C 63.996094 76.480469 62.113281 76.429688 60.230469 77.265625 C 59.253906 77.695312 58.179688 77.886719 57.132812 77.957031 C 51.84375 78.242188 46.316406 79.410156 42.859375 83.796875 C 37.59375 89.230469 38.476562 97.378906 40.667969 103.980469 C 45.292969 110.179688 53.058594 112.539062 60.539062 111.585938 C 64.304688 114.753906 68.425781 117.828125 73.40625 118.710938 C 78.789062 119.59375 84.269531 118.304688 89.652344 119.355469 C 96.609375 120.476562 104.234375 121.167969 110.597656 117.496094 C 115.148438 117.472656 119.746094 117.878906 124.25 117.042969 C 129.324219 115.875 133.421875 112.441406 137.402344 109.273438 C 142.785156 109.320312 148.957031 109.488281 152.792969 104.984375 C 161.15625 97.761719 159.222656 82.792969 149.3125 77.980469 Z M 149.3125 77.980469 " fill-opacity="1" fill-rule="nonzero"/><g clip-path="url(#a81005373b)"><path fill="#5271ff" d="M 71.675781 172.164062 C 71.675781 166.730469 67.644531 162.265625 62.410156 161.539062 L 62.410156 143.183594 L 73.722656 135.335938 C 74.144531 135.035156 74.324219 134.613281 74.324219 134.128906 L 74.324219 89.632812 C 74.324219 88.847656 73.660156 88.183594 72.878906 88.183594 C 72.097656 88.183594 71.4375 88.847656 71.4375 89.632812 L 71.4375 133.402344 L 60.125 141.253906 C 59.703125 141.554688 59.523438 141.976562 59.523438 142.460938 L 59.523438 161.597656 C 54.289062 162.324219 50.257812 166.792969 50.257812 172.226562 C 50.257812 178.144531 55.070312 182.972656 60.96875 182.972656 C 66.863281 182.972656 71.675781 178.082031 71.675781 172.164062 Z M 53.207031 172.164062 C 53.207031 167.878906 56.695312 164.375 60.96875 164.375 C 65.238281 164.375 68.730469 167.878906 68.730469 172.164062 C 68.730469 176.453125 65.238281 179.953125 60.96875 179.953125 C 56.695312 179.953125 53.207031 176.511719 53.207031 172.164062 Z M 53.207031 172.164062 " fill-opacity="1" fill-rule="nonzero"/></g><g clip-path="url(#9064f48c2d)"><path fill="#5271ff" d="M 88.160156 89.632812 L 88.160156 135.941406 C 82.925781 136.664062 78.894531 141.132812 78.894531 146.566406 C 78.894531 152.484375 83.707031 157.3125 89.605469 157.3125 C 95.5 157.3125 100.3125 152.484375 100.3125 146.566406 C 100.3125 141.132812 96.28125 136.664062 91.046875 135.941406 L 91.046875 89.632812 C 91.046875 88.847656 90.386719 88.183594 89.605469 88.183594 C 88.820312 88.183594 88.160156 88.847656 88.160156 89.632812 Z M 97.425781 146.566406 C 97.425781 150.851562 93.9375 154.355469 89.664062 154.355469 C 85.394531 154.355469 81.84375 150.851562 81.84375 146.566406 C 81.84375 142.277344 85.332031 138.777344 89.605469 138.777344 C 93.9375 138.777344 97.425781 142.277344 97.425781 146.566406 Z M 97.425781 146.566406 " fill-opacity="1" fill-rule="nonzero"/></g><g clip-path="url(#b73c8bc4df)"><path fill="#5271ff" d="M 106.691406 89.632812 L 106.691406 130.023438 C 106.691406 130.503906 106.929688 130.988281 107.351562 131.289062 L 116.375 136.964844 L 116.375 161.839844 L 104.945312 168 C 104.464844 168.242188 104.164062 168.722656 104.164062 169.265625 L 104.164062 182.308594 C 98.929688 183.03125 94.898438 187.5 94.898438 192.933594 C 94.898438 198.851562 99.710938 203.683594 105.605469 203.683594 C 111.503906 203.683594 116.316406 198.851562 116.316406 192.933594 C 116.316406 187.5 112.285156 183.03125 107.050781 182.308594 L 107.050781 170.171875 L 118.480469 164.015625 C 118.960938 163.773438 119.261719 163.289062 119.261719 162.746094 L 119.261719 136.179688 C 119.261719 135.699219 119.023438 135.214844 118.601562 134.914062 L 109.578125 129.238281 L 109.578125 89.691406 C 109.578125 88.90625 108.914062 88.242188 108.132812 88.242188 C 107.351562 88.183594 106.691406 88.847656 106.691406 89.632812 Z M 113.488281 192.933594 C 113.488281 197.222656 110 200.722656 105.726562 200.722656 C 101.457031 200.722656 97.964844 197.222656 97.964844 192.933594 C 97.964844 188.648438 101.457031 185.144531 105.726562 185.144531 C 110 185.085938 113.488281 188.585938 113.488281 192.933594 Z M 113.488281 192.933594 " fill-opacity="1" fill-rule="nonzero"/></g><g clip-path="url(#ffc9f826aa)"><path fill="#5271ff" d="M 123.714844 89.632812 L 123.714844 112.9375 C 123.714844 113.480469 124.015625 113.960938 124.4375 114.203125 L 136.109375 121.085938 L 136.109375 156.226562 C 130.875 156.949219 126.84375 161.417969 126.84375 166.851562 C 126.84375 172.769531 131.65625 177.597656 137.550781 177.597656 C 143.449219 177.597656 148.261719 172.769531 148.261719 166.851562 C 148.261719 161.417969 144.230469 156.949219 138.996094 156.226562 L 138.996094 120.242188 C 138.996094 119.699219 138.695312 119.214844 138.273438 118.972656 L 126.601562 112.089844 L 126.601562 89.632812 C 126.601562 88.847656 125.941406 88.183594 125.160156 88.183594 C 124.375 88.183594 123.714844 88.847656 123.714844 89.632812 Z M 145.371094 166.851562 C 145.371094 171.140625 141.882812 174.640625 137.613281 174.640625 C 133.339844 174.640625 129.851562 171.140625 129.851562 166.851562 C 129.851562 162.566406 133.339844 159.0625 137.613281 159.0625 C 141.882812 159.003906 145.371094 162.503906 145.371094 166.851562 Z M 145.371094 166.851562 " fill-opacity="1" fill-rule="nonzero"/></g></svg>