<?xml version="1.0" encoding="utf-8"?>
<!-- Generator: Adobe Illustrator 27.6.1, SVG Export Plug-In . SVG Version: 6.00 Build 0)  -->
<svg version="1.1" id="Layer_1" xmlns="http://www.w3.org/2000/svg" xmlns:xlink="http://www.w3.org/1999/xlink" x="0px" y="0px"
	 viewBox="0 0 500 322" style="enable-background:new 0 0 500 322;" xml:space="preserve">
<style type="text/css">
	.st0{clip-path:url(#SVGID_00000175310065477404845670000012170192461333311903_);}
	.st1{fill:#5271FF;}
	.st2{clip-path:url(#SVGID_00000158018022433788078120000012170689168354138009_);}
	.st3{clip-path:url(#SVGID_00000011743693363806946570000006291483593003783857_);}
	.st4{clip-path:url(#SVGID_00000020395912411649759360000007913897006343191734_);}
	.st5{clip-path:url(#SVGID_00000106105701841538670150000014472152915343298469_);}
</style>
<g>
	<defs>
		<rect id="SVGID_1_" x="93.3" y="50.4" width="76" height="47"/>
	</defs>
	<clipPath id="SVGID_00000147902687958461412450000008192151128192828045_">
		<use xlink:href="#SVGID_1_"  style="overflow:visible;"/>
	</clipPath>
	<g style="clip-path:url(#SVGID_00000147902687958461412450000008192151128192828045_);">
		<path class="st1" d="M94.6,65c12.3-4.6,24.2-10.4,36.6-14.6c5.1,0.7,9.6,3.4,14.4,5.2c7.5,3.4,15.4,5.8,22.6,9.8
			c0.5,4.9,0.2,9.9,0.2,14.8c-11.6,5.1-23,10.5-34.6,15.6c-2.5,1.7-5-0.2-7.3-1.1c-10.6-4.8-21.2-9.7-31.9-14.5
			C94.6,75.1,94.6,70.1,94.6,65z M161.3,69c-8.1,3.6-16,7.4-24,11.1c-2.6,1-5.5,3.1-8.3,1.3c-9.1-3.9-18-8.3-27-12.4
			c-0.1,2.6-0.2,5.1-0.3,7.7c9.9,4.5,19.8,8.9,29.6,13.4c10-4.3,20-9,29.9-13.5C161.3,74.2,161.3,71.6,161.3,69z"/>
	</g>
</g>
<path class="st1" d="M94.6,95.5l34.4,15.3c1.3,0.6,2.9,0.6,4.2,0L168,94.9l0.4-7.6l-35.1,16.6c-1.4,0.6-2.9,0.7-4.3,0L94.4,88.3
	L94.6,95.5z"/>
<path class="st1" d="M94.6,111.4l34.4,15.3c1.3,0.6,2.9,0.6,4.2,0l34.7-15.9l0.4-7.6l-35.1,16.6c-1.4,0.6-2.9,0.7-4.3,0l-34.6-15.6
	L94.6,111.4z"/>
<path class="st1" d="M94.6,125.4l34.4,15.3c1.3,0.6,2.9,0.6,4.2,0l34.7-15.9l0.4-7.6l-35.1,16.6c-1.4,0.6-2.9,0.7-4.3,0l-34.6-15.6
	L94.6,125.4z"/>
<path class="st1" d="M157.2,75.8c0,0.2,0,0.5-0.1,0.7c-0.1,0.2-0.2,0.4-0.4,0.6c-0.2,0.2-0.4,0.3-0.6,0.4c-0.2,0.1-0.5,0.1-0.7,0.1
	c-0.2,0-0.5,0-0.7-0.1c-0.2-0.1-0.4-0.2-0.6-0.4c-0.2-0.2-0.3-0.4-0.4-0.6c-0.1-0.2-0.1-0.5-0.1-0.7c0-0.2,0-0.5,0.1-0.7
	c0.1-0.2,0.2-0.4,0.4-0.6c0.2-0.2,0.4-0.3,0.6-0.4c0.2-0.1,0.4-0.1,0.7-0.1c0.2,0,0.5,0,0.7,0.1c0.2,0.1,0.4,0.2,0.6,0.4
	c0.2,0.2,0.3,0.4,0.4,0.6C157.1,75.3,157.2,75.6,157.2,75.8z"/>
<path class="st1" d="M199.2,103.7c-6.3-4.4-15.1-0.7-20.9-6c-1.6-1.1-3.1-2.2-4.7-3.4c0.7,5.1-1,12.2,4.3,15.3
	c5.6,1.2,11.6-0.6,17.1,1.6c8.6,4.1,9.4,17.7,1.7,23.1c-4.7,4.1-11.2,2.3-16.8,1.6c-4.2,3.8-8.2,8.1-13.4,10.4
	c-6.5,2.8-13.7,0.8-20.5,1.7c-4.5,1-8.8,3.1-13.3,3.8c-5.6,0-10.9-2.3-16.5-2.8c-5,0-10,1.3-15,0.8c-6.9-1.2-11.6-6.8-17.5-10.1
	c-6.3-1.2-13.9,1.6-18.9-3.6c-7.2-5.8-5.3-18,2.5-22.3c0,0,0,0,0.1-0.1c0.4-0.3,0.8-0.5,1.2-0.7c0.2-0.1,0.3-0.2,0.5-0.2
	c0.2-0.1,0.3-0.1,0.4-0.2c0.3-0.1,0.7-0.2,1-0.3c0.1,0,0.2-0.1,0.3-0.1c2.3-0.5,6.1-0.7,11.7,0.3c1.5,0.3,3.2,0.7,5,1.2l0.5-13.9
	c-2.5,1.7-5,1.6-7.5,2.7c-1.3,0.6-2.7,0.8-4.1,0.9c-7,0.4-14.4,1.9-19,7.8c-7,7.2-5.8,18.1-2.9,26.9c6.2,8.2,16.5,11.4,26.4,10.1
	c5,4.2,10.5,8.3,17.1,9.5c7.2,1.2,14.5-0.5,21.6,0.9c9.3,1.5,19.4,2.4,27.9-2.5c6.1,0,12.2,0.5,18.2-0.6c6.8-1.6,12.2-6.1,17.5-10.3
	c7.2,0.1,15.4,0.3,20.5-5.7C214.9,130,212.4,110.1,199.2,103.7z"/>
<g>
	<defs>
		<rect id="SVGID_00000158025962847571149260000013305023369175529908_" x="67.2" y="150.2" width="32.8" height="93.8"/>
	</defs>
	<clipPath id="SVGID_00000154416486437013932490000000907111759128918936_">
		<use xlink:href="#SVGID_00000158025962847571149260000013305023369175529908_"  style="overflow:visible;"/>
	</clipPath>
	<g style="clip-path:url(#SVGID_00000154416486437013932490000000907111759128918936_);">
		<path class="st1" d="M95.9,229c0-7.2-5.4-13.2-12.3-14.1v-24.4l15-10.4c0.6-0.4,0.8-1,0.8-1.6v-59.2c0-1-0.9-1.9-1.9-1.9
			s-1.9,0.9-1.9,1.9v58.2l-15,10.4c-0.6,0.4-0.8,1-0.8,1.6V215c-7,1-12.3,6.9-12.3,14.1c0,7.9,6.4,14.3,14.2,14.3
			S95.9,236.9,95.9,229z M71.3,229c0-5.7,4.6-10.4,10.3-10.4c5.7,0,10.3,4.7,10.3,10.4s-4.6,10.4-10.3,10.4
			C76,239.4,71.3,234.8,71.3,229z"/>
	</g>
</g>
<g>
	<defs>
		<rect id="SVGID_00000101816943052392528350000007397606409295292544_" x="105.3" y="150.2" width="29.3" height="59.1"/>
	</defs>
	<clipPath id="SVGID_00000136407093890993489960000002255509964592740224_">
		<use xlink:href="#SVGID_00000101816943052392528350000007397606409295292544_"  style="overflow:visible;"/>
	</clipPath>
	<g style="clip-path:url(#SVGID_00000136407093890993489960000002255509964592740224_);">
		<path class="st1" d="M117.8,119.2v61.6c-7,1-12.3,6.9-12.3,14.1c0,7.9,6.4,14.3,14.2,14.3c7.8,0,14.3-6.4,14.3-14.3
			c0-7.2-5.4-13.2-12.3-14.1v-61.6c0-1-0.9-1.9-1.9-1.9C118.7,117.3,117.8,118.1,117.8,119.2z M130.1,194.9
			c0,5.7-4.6,10.4-10.3,10.4c-5.7,0-10.4-4.7-10.4-10.4s4.6-10.4,10.3-10.4C125.5,184.6,130.1,189.2,130.1,194.9z"/>
	</g>
</g>
<g>
	<defs>
		<rect id="SVGID_00000044177539620330225000000008352850411838251912_" x="126.7" y="150.2" width="33.3" height="120.8"/>
	</defs>
	<clipPath id="SVGID_00000086683009863341669290000003217336701854837132_">
		<use xlink:href="#SVGID_00000044177539620330225000000008352850411838251912_"  style="overflow:visible;"/>
	</clipPath>
	<g style="clip-path:url(#SVGID_00000086683009863341669290000003217336701854837132_);">
		<path class="st1" d="M142.5,119.2v53.7c0,0.6,0.3,1.3,0.9,1.7l12,7.5v33.1l-15.2,8.2c-0.6,0.3-1,1-1,1.7v17.3
			c-7,1-12.3,6.9-12.3,14.1c0,7.9,6.4,14.3,14.3,14.3c7.8,0,14.2-6.4,14.2-14.3c0-7.2-5.4-13.2-12.3-14.1v-16.1l15.2-8.2
			c0.6-0.3,1-1,1-1.7v-35.3c0-0.6-0.3-1.3-0.9-1.7l-12-7.6v-52.6c0-1-0.9-1.9-1.9-1.9C143.4,117.3,142.5,118.1,142.5,119.2z
			 M151.5,256.6c0,5.7-4.6,10.4-10.3,10.4c-5.7,0-10.3-4.7-10.3-10.4s4.6-10.4,10.3-10.4C146.9,246.2,151.5,250.9,151.5,256.6z"/>
	</g>
</g>
<g>
	<defs>
		<rect id="SVGID_00000037663874835358712720000016575772091143151018_" x="164" y="150.2" width="34" height="87.1"/>
	</defs>
	<clipPath id="SVGID_00000059988760948403297210000016463683091123353985_">
		<use xlink:href="#SVGID_00000037663874835358712720000016575772091143151018_"  style="overflow:visible;"/>
	</clipPath>
	<g style="clip-path:url(#SVGID_00000059988760948403297210000016463683091123353985_);">
		<path class="st1" d="M165.1,119.2v31c0,0.7,0.4,1.4,1,1.7l15.5,9.2v46.8c-7,1-12.3,6.9-12.3,14.1c0,7.9,6.4,14.3,14.2,14.3
			s14.2-6.4,14.2-14.3c0-7.2-5.4-13.2-12.3-14.1v-47.9c0-0.7-0.4-1.4-1-1.7l-15.5-9.2v-29.9c0-1-0.9-1.9-1.9-1.9
			C166,117.3,165.1,118.1,165.1,119.2z M193.9,221.9c0,5.7-4.6,10.4-10.3,10.4s-10.3-4.7-10.3-10.4c0-5.7,4.6-10.4,10.3-10.4
			C189.3,211.5,193.9,216.2,193.9,221.9z"/>
	</g>
</g>
<g>
	<g transform="translate(161.371369, 125.447027)">
		<g>
			<path class="st1" d="M91,0.7v8.5H74.5V19h14.6v8.5H74.5V38H91v8.5H63.4V0.7H91z"/>
		</g>
	</g>
</g>
<g>
	<g transform="translate(189.294793, 125.447027)">
		<g>
			<path class="st1" d="M83.8,38h4.9c4.3,0,7.6-1.3,10-3.9c2.4-2.6,3.6-6.1,3.6-10.5c0-4.4-1.2-7.9-3.6-10.5
				c-2.4-2.6-5.8-3.9-10-3.9h-4.9V38z M88.7,0.8c7.3,0,13.3,2.1,18,6.4c4.7,4.2,7,9.7,7,16.5c0,6.7-2.3,12.2-7,16.5
				c-4.7,4.2-10.7,6.4-18,6.4H72.7V0.8H88.7z"/>
		</g>
	</g>
</g>
<g>
	<g transform="translate(225.370678, 125.447027)">
		<g>
			<path class="st1" d="M114.2,33.1c2.2-2.4,3.3-5.6,3.3-9.6c0-4-1.1-7.2-3.3-9.6c-2.2-2.4-5.1-3.6-8.8-3.6s-6.6,1.2-8.8,3.6
				c-2.2,2.4-3.3,5.6-3.3,9.6c0,4,1.1,7.2,3.3,9.6c2.2,2.4,5.1,3.6,8.8,3.6S112,35.5,114.2,33.1z M88.8,40.3
				c-4.5-4.4-6.8-10-6.8-16.8c0-6.8,2.3-12.4,6.8-16.8c4.5-4.4,10.1-6.6,16.7-6.6c6.6,0,12.1,2.2,16.6,6.6c4.5,4.4,6.7,10,6.7,16.8
				c0,6.8-2.3,12.4-6.8,16.8c-4.5,4.4-10.1,6.6-16.6,6.6C98.9,47,93.4,44.7,88.8,40.3z"/>
		</g>
	</g>
</g>
<g>
	<g transform="translate(263.83861, 125.447027)">
		<g>
			<path class="st1" d="M101.6,40.3c-4.5-4.4-6.8-10-6.8-16.8c0-6.8,2.3-12.4,6.8-16.8c4.5-4.4,10.1-6.6,16.6-6.6
				c5.1,0,9.6,1.3,13.5,4c4,2.7,6.7,6.4,8.3,11.2h-13.3c-1.7-3.3-4.5-5-8.3-5c-3.8,0-6.8,1.2-9,3.6c-2.2,2.4-3.3,5.6-3.3,9.6
				c0,4,1.1,7.2,3.3,9.6c2.2,2.4,5.2,3.6,9,3.6c3.8,0,6.6-1.7,8.3-5h13.3c-1.6,4.8-4.3,8.5-8.3,11.2c-3.9,2.7-8.5,4-13.5,4
				C111.7,46.9,106.2,44.7,101.6,40.3z"/>
		</g>
	</g>
</g>
<g>
	<g transform="translate(301.134931, 125.447027)">
		<g>
			<path class="st1" d="M125.4,8.9c-1.4,0-2.5,0.4-3.4,1.1c-0.9,0.7-1.3,1.8-1.3,3.2c0,1.4,0.4,2.5,1.2,3.4c0.8,0.8,1.9,1.5,3.2,2
				c1.3,0.5,2.8,0.9,4.4,1.3c1.6,0.4,3.3,0.9,4.9,1.5c1.6,0.6,3.1,1.3,4.4,2.2c1.3,0.9,2.4,2.1,3.2,3.7c0.8,1.6,1.2,3.5,1.2,5.7
				c0,3.9-1.6,7.2-4.7,9.9c-3.1,2.8-7.3,4.1-12.4,4.1c-5.1,0-9.3-1.2-12.4-3.7c-3.1-2.5-4.7-6-4.7-10.6h11.8
				c0.3,3.7,2.2,5.5,5.6,5.5c1.6,0,2.9-0.4,3.8-1.3c0.9-0.8,1.4-1.9,1.4-3.2c0-1.3-0.4-2.4-1.2-3.2c-0.8-0.8-1.9-1.5-3.2-2
				c-1.3-0.5-2.8-0.9-4.4-1.3c-1.6-0.4-3.2-0.9-4.9-1.5c-1.6-0.6-3.1-1.3-4.4-2.2c-1.3-0.8-2.4-2.1-3.2-3.6
				c-0.8-1.6-1.2-3.5-1.2-5.6c0-4.2,1.6-7.7,4.8-10.2c3.2-2.6,7.2-3.9,12.1-3.9c4.9,0,8.9,1.1,12,3.4c3,2.2,4.6,5.8,4.8,10.6h-12.1
				c-0.2-1.7-0.7-2.9-1.6-3.8C128,9.4,126.8,8.9,125.4,8.9z"/>
		</g>
	</g>
</g>
</svg>
