<?xml version="1.0" encoding="UTF-8"?>
<svg id="Layer_2" data-name="Layer 2" xmlns="http://www.w3.org/2000/svg" xmlns:xlink="http://www.w3.org/1999/xlink" viewBox="0 0 392.07 220.56">
  <defs>
    <style>
      .cls-1 {
        clip-path: url(#clippath-4);
      }

      .cls-1, .cls-2, .cls-3, .cls-4, .cls-5, .cls-6 {
        fill: none;
      }

      .cls-2 {
        clip-path: url(#clippath-2);
      }

      .cls-3 {
        clip-path: url(#clippath-3);
      }

      .cls-7 {
        fill: #5271ff;
      }

      .cls-5 {
        clip-path: url(#clippath);
      }

      .cls-6 {
        clip-path: url(#clippath-1);
      }
    </style>
    <clipPath id="clippath">
      <rect class="cls-4" x="40.99" width="76" height="46.95"/>
    </clipPath>
    <clipPath id="clippath-1">
      <rect class="cls-4" x="14.89" y="99.81" width="32.78" height="93.81"/>
    </clipPath>
    <clipPath id="clippath-2">
      <rect class="cls-4" x="52.99" y="99.81" width="29.33" height="59.14"/>
    </clipPath>
    <clipPath id="clippath-3">
      <rect class="cls-4" x="74.33" y="99.81" width="33.33" height="120.75"/>
    </clipPath>
    <clipPath id="clippath-4">
      <rect class="cls-4" x="111.66" y="99.81" width="33.95" height="87.14"/>
    </clipPath>
  </defs>
  <g id="Layer_1-2" data-name="Layer 1">
    <g class="cls-5">
      <path class="cls-7" d="m42.3,14.59c12.33-4.57,24.16-10.43,36.62-14.59,5.07.67,9.64,3.43,14.42,5.23,7.48,3.36,15.38,5.83,22.57,9.8.51,4.92.22,9.86.25,14.81-11.57,5.07-23.02,10.49-34.61,15.6-2.47,1.65-5.01-.16-7.32-1.08-10.62-4.85-21.24-9.73-31.93-14.52,0-5.08-.03-10.15,0-15.26Zm66.64,4.06c-8.05,3.61-16.01,7.39-23.97,11.13-2.63,1.02-5.48,3.11-8.31,1.33-9.13-3.87-17.97-8.31-27.01-12.36-.09,2.57-.19,5.1-.28,7.67,9.89,4.47,19.78,8.88,29.61,13.45,10.05-4.31,19.97-8.97,29.93-13.54.03-2.54.03-5.11.03-7.68Z"/>
    </g>
    <path class="cls-7" d="m42.27,45.09l34.4,15.32c1.33.6,2.89.6,4.22-.03l34.74-15.89.38-7.58-35.13,16.62c-1.36.64-2.92.67-4.31.03l-34.55-15.6.25,7.14Z"/>
    <path class="cls-7" d="m42.27,60.98l34.4,15.32c1.33.6,2.89.6,4.22-.03l34.74-15.89.38-7.58-35.13,16.61c-1.36.64-2.92.67-4.31.03l-34.58-15.6.28,7.14Z"/>
    <path class="cls-7" d="m42.27,75.06l34.4,15.32c1.33.6,2.89.6,4.22-.03l34.74-15.89.38-7.58-35.13,16.62c-1.36.64-2.92.67-4.31.03l-34.58-15.6.28,7.14Z"/>
    <path class="cls-7" d="m104.81,25.43c0,.24-.04.47-.14.69-.09.22-.22.42-.39.59-.17.17-.36.3-.59.39-.22.09-.45.14-.69.14s-.47-.04-.69-.14c-.22-.09-.42-.22-.59-.39-.17-.17-.3-.36-.39-.59-.09-.22-.14-.45-.14-.69s.05-.47.14-.69c.09-.22.22-.42.39-.58s.36-.3.59-.39c.22-.09.45-.14.69-.14s.47.05.69.14c.22.09.42.22.59.39s.3.36.39.58c.09.22.14.45.14.69Z"/>
    <path class="cls-7" d="m146.85,53.31c-6.31-4.38-15.12-.67-20.86-5.99-1.55-1.11-3.1-2.25-4.66-3.36.69,5.07-1.02,12.21,4.34,15.29,5.61,1.17,11.64-.6,17.06,1.61,8.59,4.13,9.35,17.7,1.65,23.09-4.72,4.13-11.22,2.31-16.77,1.58-4.22,3.78-8.21,8.06-13.41,10.44-6.5,2.82-13.69.76-20.48,1.74-4.5,1.02-8.75,3.08-13.31,3.78-5.61.03-10.91-2.31-16.45-2.79-5.01-.03-9.99,1.33-14.99.79-6.94-1.17-11.64-6.82-17.53-10.11-6.28-1.2-13.89,1.62-18.93-3.55-7.23-5.77-5.27-18.01,2.54-22.32,0,0,.03-.03.09-.06.41-.29.82-.51,1.2-.7.16-.07.32-.16.51-.19.16-.06.29-.13.44-.16.32-.13.7-.22,1.02-.29.09-.03.19-.06.32-.06,2.34-.51,6.08-.73,11.7.32,1.52.28,3.2.66,5.04,1.17l.48-13.89c-2.51,1.68-5.01,1.61-7.52,2.73-1.3.57-2.72.82-4.12.92-7.04.38-14.4,1.94-18.99,7.77-7.01,7.23-5.83,18.07-2.92,26.86,6.15,8.24,16.48,11.39,26.44,10.11,5.01,4.22,10.49,8.31,17.12,9.48,7.17,1.17,14.46-.54,21.62.85,9.26,1.49,19.4,2.41,27.86-2.47,6.06-.03,12.18.51,18.17-.6,6.76-1.56,12.21-6.12,17.5-10.34,7.17.06,15.38.29,20.48-5.71,11.13-9.61,8.56-29.53-4.63-35.93Z"/>
    <g class="cls-6">
      <path class="cls-7" d="m43.55,178.63c0-7.23-5.36-13.18-12.32-14.14v-24.42l15.05-10.44c.56-.4.8-.96.8-1.6v-59.21c0-1.05-.88-1.93-1.92-1.93s-1.92.88-1.92,1.93v58.24l-15.05,10.45c-.56.4-.8.96-.8,1.6v25.47c-6.96.96-12.33,6.91-12.33,14.14,0,7.88,6.41,14.3,14.25,14.3s14.24-6.51,14.24-14.38Zm-24.57,0c0-5.7,4.64-10.36,10.33-10.36s10.32,4.66,10.32,10.36-4.64,10.36-10.32,10.36-10.33-4.58-10.33-10.36Z"/>
    </g>
    <g class="cls-2">
      <path class="cls-7" d="m65.48,68.81v61.61c-6.97.96-12.33,6.91-12.33,14.14,0,7.88,6.4,14.3,14.24,14.3s14.25-6.42,14.25-14.3c0-7.23-5.36-13.18-12.33-14.14v-61.61c0-1.05-.88-1.93-1.92-1.93s-1.92.88-1.92,1.93Zm12.32,75.76c0,5.7-4.64,10.36-10.32,10.36s-10.41-4.66-10.41-10.36,4.64-10.36,10.32-10.36,10.41,4.66,10.41,10.36Z"/>
    </g>
    <g class="cls-3">
      <path class="cls-7" d="m90.14,68.81v53.74c0,.64.32,1.28.88,1.69l12.01,7.55v33.1l-15.21,8.2c-.64.32-1.04.96-1.04,1.69v17.35c-6.96.96-12.33,6.91-12.33,14.14,0,7.87,6.4,14.3,14.25,14.3s14.24-6.43,14.24-14.3c0-7.23-5.36-13.18-12.32-14.14v-16.15l15.21-8.19c.64-.32,1.04-.97,1.04-1.69v-35.35c0-.64-.32-1.29-.88-1.69l-12.01-7.55v-52.62c0-1.04-.88-1.93-1.92-1.93-1.04-.08-1.92.8-1.92,1.85Zm9.05,137.45c0,5.7-4.64,10.36-10.33,10.36s-10.32-4.66-10.32-10.36,4.64-10.36,10.32-10.36c5.69-.08,10.33,4.58,10.33,10.36Z"/>
    </g>
    <g class="cls-1">
      <path class="cls-7" d="m112.79,68.81v31.01c0,.72.4,1.36.96,1.68l15.53,9.16v46.76c-6.96.96-12.33,6.91-12.33,14.14,0,7.87,6.41,14.3,14.25,14.3s14.24-6.43,14.24-14.3c0-7.23-5.36-13.18-12.32-14.14v-47.88c0-.72-.4-1.36-.96-1.69l-15.53-9.16v-29.89c0-1.05-.89-1.93-1.92-1.93s-1.92.88-1.92,1.93Zm28.82,102.75c0,5.7-4.65,10.36-10.33,10.36s-10.33-4.66-10.33-10.36,4.65-10.36,10.33-10.36c5.68-.08,10.33,4.58,10.33,10.36Z"/>
    </g>
    <path class="cls-7" d="m200.07,75.74v8.46h-16.54v9.83h14.58v8.46h-14.58v10.63h16.54v8.46h-27.69v-45.83h27.69Z"/>
    <path class="cls-7" d="m220.76,113.11h4.94c4.26,0,7.61-1.3,10.04-3.9,2.43-2.61,3.65-6.11,3.65-10.5s-1.22-7.88-3.65-10.48c-2.43-2.61-5.78-3.92-10.04-3.92h-4.94v28.79Zm4.94-37.25c7.29,0,13.28,2.12,17.96,6.35,4.69,4.24,7.04,9.73,7.04,16.48s-2.35,12.24-7.04,16.5c-4.68,4.25-10.67,6.38-17.96,6.38h-16.08v-45.71h16.08Z"/>
    <path class="cls-7" d="m287.24,108.15c2.19-2.39,3.29-5.57,3.29-9.56s-1.1-7.19-3.29-9.56c-2.18-2.39-5.1-3.58-8.77-3.58s-6.6,1.2-8.79,3.58c-2.2,2.38-3.29,5.56-3.29,9.56s1.09,7.18,3.29,9.56c2.19,2.39,5.13,3.58,8.79,3.58s6.59-1.19,8.77-3.58Zm-25.4,7.23c-4.53-4.43-6.79-10.03-6.79-16.79s2.26-12.36,6.79-16.77c4.54-4.4,10.09-6.6,16.67-6.6s12.11,2.2,16.6,6.6c4.5,4.41,6.75,9.99,6.75,16.77s-2.26,12.36-6.77,16.79c-4.52,4.43-10.05,6.65-16.6,6.65s-12.1-2.21-16.65-6.65Z"/>
    <path class="cls-7" d="m313.14,115.36c-4.53-4.42-6.79-10.01-6.79-16.77s2.26-12.36,6.79-16.77c4.54-4.4,10.09-6.6,16.65-6.6,5.08,0,9.59,1.35,13.54,4.04,3.96,2.68,6.71,6.41,8.27,11.19h-13.27c-1.74-3.33-4.52-5-8.33-5s-6.83,1.2-9.02,3.58c-2.2,2.38-3.29,5.56-3.29,9.56s1.09,7.18,3.29,9.56c2.19,2.39,5.2,3.58,9.02,3.58s6.59-1.67,8.33-5.02h13.27c-1.56,4.78-4.31,8.52-8.27,11.21-3.95,2.7-8.46,4.04-13.54,4.04-6.56,0-12.1-2.2-16.65-6.6Z"/>
    <path class="cls-7" d="m374.24,84.01c-1.39,0-2.53.37-3.42,1.1-.89.74-1.33,1.8-1.33,3.19s.41,2.51,1.23,3.35c.83.85,1.91,1.5,3.23,1.96,1.32.46,2.79.9,4.42,1.31,1.64.41,3.26.9,4.85,1.48,1.61.58,3.07,1.31,4.4,2.19,1.33.86,2.41,2.08,3.23,3.67.82,1.58,1.23,3.49,1.23,5.71,0,3.86-1.58,7.18-4.73,9.94-3.14,2.75-7.28,4.13-12.42,4.13s-9.29-1.23-12.44-3.71c-3.14-2.47-4.71-5.99-4.71-10.56h11.83c.3,3.66,2.17,5.48,5.6,5.48,1.61,0,2.86-.42,3.77-1.27.92-.84,1.38-1.92,1.38-3.21s-.42-2.36-1.25-3.19c-.82-.83-1.89-1.48-3.21-1.96-1.32-.48-2.8-.93-4.44-1.33-1.63-.42-3.24-.93-4.85-1.54-1.6-.61-3.06-1.34-4.4-2.19-1.32-.84-2.39-2.06-3.21-3.65-.82-1.58-1.23-3.46-1.23-5.63,0-4.25,1.58-7.65,4.75-10.21,3.17-2.57,7.21-3.85,12.13-3.85s8.92,1.12,11.96,3.35c3.04,2.24,4.63,5.77,4.75,10.58h-12.1c-.18-1.65-.72-2.92-1.6-3.81-.89-.89-2.03-1.33-3.42-1.33Z"/>
  </g>
</svg>