<svg xmlns="http://www.w3.org/2000/svg" viewBox="97.435 31.0087 184.13 215.5154">
  <g transform="matrix(1, 0, 0, 1, -2.842170943040401e-14, -1.4210854715202004e-14)">
    <path fill="#000000" d="M 188.834 31.13 L 263.834 78.96 C 264.215 79.203 264.445 79.625 264.444 80.08 L 264.454 154.7 C 264.454 155.104 264.245 155.476 263.904 155.68 L 189.814 200.98 C 188.618 201.712 187.108 201.685 185.944 200.91 L 114.424 153.59 C 114.131 153.397 113.954 153.067 113.954 152.71 L 113.944 80.27 C 113.944 79.782 114.193 79.327 114.604 79.06 C 137.691 63.8 160.671 48.58 183.544 33.4 C 185.177 32.32 186.714 31.537 188.154 31.05 C 188.383 30.974 188.632 31.004 188.834 31.13 L 188.834 31.13 Z M 251.544 83.01 C 251.944 82.923 252.204 82.827 252.324 82.72 C 252.833 82.224 252.72 81.368 252.094 80.97 L 192.734 43.1 C 192.389 42.884 191.939 43.114 191.924 43.515 C 191.924 43.523 191.924 43.532 191.924 43.54 L 191.894 100.7 C 191.893 101.394 192.238 102.045 192.814 102.44 L 206.054 111.38 C 206.526 111.701 207.143 111.705 207.614 111.39 C 221.827 101.983 236.217 92.62 250.784 83.3 C 250.997 83.16 251.251 83.063 251.544 83.01 Z M 125.794 81.18 C 125.519 81.365 125.524 81.772 125.804 81.95 L 171.234 111.5 C 171.386 111.598 171.582 111.598 171.734 111.5 L 183.614 103.79 C 183.746 103.704 183.825 103.557 183.824 103.4 L 183.854 43.62 C 183.857 43.266 183.476 43.041 183.167 43.216 C 183.159 43.22 183.152 43.225 183.144 43.23 L 125.794 81.18 Z M 122.624 89.4 C 122.291 89.192 121.858 89.423 121.844 89.815 C 121.844 89.82 121.844 89.825 121.844 89.83 L 121.844 142.93 C 121.846 143.323 122.272 143.566 122.611 143.368 C 122.616 143.365 122.62 143.363 122.624 143.36 L 163.434 116.81 C 163.748 116.61 163.748 116.15 163.434 115.95 L 122.624 89.4 Z M 255.724 145.09 C 255.914 145.221 256.175 145.097 256.193 144.866 C 256.194 144.858 256.194 144.849 256.194 144.84 L 256.584 89.45 C 256.581 89.219 256.329 89.078 256.131 89.196 C 256.128 89.197 256.126 89.199 256.124 89.2 L 214.324 116.61 C 214.155 116.73 214.155 116.98 214.324 117.1 L 255.724 145.09 Z M 179.514 115.64 C 178.991 115.965 178.991 116.725 179.514 117.05 L 188.804 122.84 C 189.073 123.008 189.415 123.008 189.684 122.84 L 198.804 117.2 C 199.329 116.879 199.334 116.118 198.814 115.79 L 189.574 109.97 C 189.307 109.799 188.965 109.795 188.694 109.96 L 179.514 115.64 Z M 171.594 121.26 C 171.466 121.178 171.302 121.178 171.174 121.26 L 125.744 150.82 C 125.509 150.971 125.504 151.312 125.734 151.47 L 184.704 190.56 C 184.952 190.729 185.29 190.567 185.313 190.268 C 185.314 190.255 185.314 190.243 185.314 190.23 L 185.324 130.31 C 185.324 130.176 185.257 130.052 185.144 129.98 L 171.594 121.26 Z M 193.294 188.81 C 193.298 189.11 193.625 189.294 193.883 189.141 C 193.883 189.14 193.884 189.14 193.884 189.14 L 252.694 153.25 C 252.942 153.105 252.952 152.75 252.714 152.59 L 206.854 121.56 C 206.724 121.474 206.554 121.474 206.424 121.56 L 193.454 129.84 C 193.341 129.912 193.274 130.036 193.274 130.17 L 193.294 188.81 Z"/>
    <g transform="matrix(1, 0, 0, 1, 10.593994, 0)">
      <rect fill="#000000" x="86.841" y="212.744" width="171.74" height="4.54" rx="2.11"/>
      <rect fill="#000000" x="106.891" y="220.394" width="129.96" height="4.54" rx="2.2"/>
      <rect fill="#000000" x="138.071" y="228.294" width="80.16" height="4.3" rx="1.9"/>
      <rect fill="#000000" x="128.691" y="236.014" width="129.9" height="4.32" rx="2.14"/>
      <rect fill="#000000" x="99.291" y="242.264" width="171.68" height="4.26" rx="2.09"/>
    </g>
  </g>
</svg>